<svg id="Layer_1" data-name="Layer 1" xmlns="http://www.w3.org/2000/svg" viewBox="0 0 184.9 124.1"><defs><style>.cls-1{fill:#004518;}.cls-1,.cls-3{stroke:#fff;}.cls-1,.cls-2,.cls-3{stroke-miterlimit:10;}.cls-2{fill:#02aa0a;stroke:#fcfcfc;}.cls-3{fill:#77d2df;}.cls-4{fill:#56b74a;}.cls-5{fill:#fff;}.cls-6{font-size:25px;font-family:Code-Bold, Code Bold;}</style></defs><title>CampersLogo</title><polyline class="cls-1" points="44.75 78.39 86.33 8.42 91.5 0.89 102.67 17.22 106.67 12.38 143 79.05"/><path class="cls-2" d="M140.92,113.67l-16-10.25h7.75l-17-14.75h5.44L94.17,51.92h0L67.23,88.67h5.44l-17,14.75h7.75l-16,10.25Z" transform="translate(-2.67 -28.28)"/><polygon class="cls-3" points="58.58 95.23 92.07 43.04 123.58 95.23 71 95.23 58.58 95.23"/><polygon class="cls-4" points="91.5 12.22 96.78 8.6 91.5 0.89 85.82 9.16 91.5 12.22"/><polygon class="cls-4" points="104.46 15.05 108 18.39 109.46 17.55 106.67 12.38 104.46 15.05"/><circle class="cls-5" cx="53.19" cy="16.57" r="1.19"/><circle class="cls-5" cx="134.5" cy="15.38" r="0.88"/><circle class="cls-5" cx="35.45" cy="39.09" r="0.95"/><circle class="cls-5" cx="139.44" cy="41.88" r="1.19"/><circle class="cls-5" cx="55.09" cy="33.1" r="0.72"/><circle class="cls-5" cx="35.45" cy="59.09" r="0.95"/><circle class="cls-5" cx="149.19" cy="63.99" r="0.85"/><circle class="cls-5" cx="156" cy="54.51" r="0.85"/><text class="cls-6" transform="translate(0 118.45)">CAMPER&apos;S GUIDE</text><polygon class="cls-1" points="91.08 63.13 71 95.23 110.17 95.05 91.08 63.13"/></svg>